HIERARCHY
ROOT Hips
{
   OFFSET 0.00000 0.00000 0.00000
   CHANNELS 6 Xposition Yposition Zposition Zrotation Xrotation Yrotation
   JOINT Spine
   {
      OFFSET 0.000000 11.890501 0.000000
      CHANNELS 3 Zrotation Xrotation Yrotation
      JOINT Spine1
      {
         OFFSET -0.000000 25.657401 0.127660
         CHANNELS 3 Zrotation Xrotation Yrotation
         JOINT HEad
         {
            OFFSET 0.000000 8.734161 0.011340
            CHANNELS 3 Zrotation Xrotation Yrotation
            End Site
            {
               OFFSET -0.290000 12.774200 2.513950
            }
         }
         JOINT LeftShoulder1
         {
            OFFSET 8.990000 -0.362250 -0.220000
            CHANNELS 3 Zrotation Xrotation Yrotation
            JOINT LeftArm
            {
               OFFSET 10.282700 -0.003380 0.322120
               CHANNELS 3 Zrotation Xrotation Yrotation
               JOINT LeftForeArm
               {
                  OFFSET 32.766900 0.099140 -1.424340
                  CHANNELS 3 Zrotation Xrotation Yrotation
                  JOINT LeftHand
                  {
                     OFFSET 27.564301 0.085360 1.022160
                     CHANNELS 3 Zrotation Xrotation Yrotation
                     End Site
                     {
                        OFFSET 16.744301 -0.600000 1.502910
                     }
                  }
               }
            }
         }
         JOINT RightShoulder
         {
            OFFSET -8.990000 -0.362250 -0.220000
            CHANNELS 3 Zrotation Xrotation Yrotation
            JOINT RightArm
            {
               OFFSET -10.282700 -0.003380 0.322120
               CHANNELS 3 Zrotation Xrotation Yrotation
               JOINT RightForeArm
               {
                  OFFSET -32.897098 0.099140 -1.424340
                  CHANNELS 3 Zrotation Xrotation Yrotation
                  JOINT RightHand
                  {
                     OFFSET -27.492101 0.085360 1.022160
                     CHANNELS 3 Zrotation Xrotation Yrotation
                     End Site
                     {
                        OFFSET -16.631201 -0.600000 1.502910
                     }
                  }
               }
            }
         }
      }
   }
   JOINT LeftUpLeg
   {
      OFFSET 8.945800 -8.667070 0.101650
      CHANNELS 3 Zrotation Xrotation Yrotation
      JOINT LeftLeg
      {
         OFFSET 0.000000 -44.422697 1.372700
         CHANNELS 3 Zrotation Xrotation Yrotation
         JOINT LeftFoot
         {
            OFFSET -0.253550 -42.092399 -1.460590
            CHANNELS 3 Zrotation Xrotation Yrotation
            JOINT LeftToes
            {
               OFFSET -0.040000 -4.415090 8.499099
               CHANNELS 3 Zrotation Xrotation Yrotation
               End Site
               {
                  OFFSET 0.080000 -0.047450 9.779790
               }
            }
         }
      }
   }
   JOINT RightUpLeg
   {
      OFFSET -8.945800 -8.667070 0.101650
      CHANNELS 3 Zrotation Xrotation Yrotation
      JOINT RightLeg
      {
         OFFSET 0.000000 -44.422697 1.372700
         CHANNELS 3 Zrotation Xrotation Yrotation
         JOINT RightFoot
         {
            OFFSET 0.253550 -42.092399 -1.460590
            CHANNELS 3 Zrotation Xrotation Yrotation
            JOINT RightToes
            {
               OFFSET 0.040000 -4.415090 8.499099
               CHANNELS 3 Zrotation Xrotation Yrotation
               End Site
               {
                  OFFSET -0.080000 -0.137450 9.779790
               }
            }
         }
      }
   }
}
MOTION
Frames: 9
Frame Time: 0.016670
-59.465207 90.245389 -120.467709 -9.758540 -13.050558 -16.240120 -6.068178 29.711282 92.554609 24.491013 7.184153 -76.897015 1.706129 44.851827 -7.288413 -23.147422 18.462727 -8.251665 -38.301239 -46.405729 -85.060997 383.700794 10.802112 -61.425961 -11.966902 -19.635474 -53.565021 16.695890 23.674793 33.394250 114.820288 177.011729 225.298789 24.647246 279.501969 70.081060 -10.288919 6.682798 37.829614 22.603857 -16.856606 49.753031 14.128309 27.058455 99.023844 -48.029743 105.244882 12.902330 47.771289 -0.586920 -74.104417 -20.957052 9.630927 24.583060 25.909523 13.572262 14.671620 -45.693863 3.430523 16.134094 24.817045 -28.443783 -62.387084
-58.403553 90.502308 -120.165508 -11.796176 -11.795838 -22.360426 -5.507710 28.991284 85.948041 23.485501 7.846357 -75.954388 1.422612 40.547742 1.277577 -25.454240 18.337226 -0.091582 -38.770609 -46.683581 -86.949565 377.895925 9.695025 -55.234845 -10.856789 -18.960105 -52.407099 10.420457 28.027353 44.768294 124.466278 176.976813 224.424512 18.790778 282.621726 66.650577 -16.355293 11.696659 23.511214 25.011791 -14.667126 45.921097 11.774982 28.744172 104.574902 -51.233942 104.832202 11.757278 46.360889 -3.582919 -72.740381 -20.524947 7.677430 21.618864 24.365344 13.568728 18.154202 -45.960066 3.640479 16.766004 26.328052 -26.363974 -58.791106
-57.120179 90.703457 -119.637640 -14.201583 -10.643018 -29.563224 -5.629687 29.796622 77.956316 23.423413 11.287275 -73.963128 0.245694 37.175169 10.218667 -19.549174 21.676404 -3.792285 -54.559244 -56.202461 -97.980580 376.675316 9.245554 -53.298749 -9.371661 -18.795052 -50.737210 9.755886 35.039058 47.841517 124.002740 183.496720 222.370523 15.802107 290.499365 65.720169 -10.663781 7.032843 31.464387 27.635482 -11.967098 40.876688 9.224985 30.886310 110.861210 -52.874431 104.373227 11.233798 45.219786 -6.187921 -71.947314 -19.724842 5.899001 18.378174 22.399199 13.716499 20.732421 -45.989289 3.977552 17.899462 28.294347 -24.094184 -53.151849
-55.665259 90.832919 -118.785313 -17.093950 -8.986612 -38.112124 -3.867412 28.954593 69.181613 20.372492 12.043755 -72.131094 -1.722886 34.597131 19.353240 -18.086952 23.554082 2.274844 -44.154243 -58.741512 -82.821460 382.530618 2.649206 -46.895519 -23.610089 -16.513823 -30.593674 1.645292 37.134912 57.851047 131.051195 183.686408 221.979536 14.697770 296.584217 66.326990 -14.094008 5.764397 34.730825 30.979412 -8.408177 35.780233 6.481298 33.421478 116.352723 -53.563706 103.834721 10.909012 44.519757 -8.341630 -71.384739 -18.350901 3.961909 14.419673 21.161261 14.252250 24.678763 -45.647069 4.742414 19.578239 22.554077 -19.972955 -66.977532
-54.114179 90.744084 -117.724188 -20.841989 -7.573310 -46.022344 1.304854 28.365140 63.710358 19.636656 16.572768 -66.829125 -4.644572 33.959625 27.280057 -12.147013 29.243428 5.365348 -28.693307 -54.445265 -65.034473 383.564436 -4.461951 -39.044582 -19.739144 -41.419585 -47.349959 1.734845 43.367231 54.639068 129.160530 191.051702 221.664651 14.026467 303.037626 68.416489 -11.074271 4.713420 41.397497 34.311903 -3.198105 32.151992 2.842549 34.898814 121.551085 -54.396754 102.872361 9.953514 43.319488 -10.620982 -71.217542 -16.842253 3.638390 10.980087 20.323580 15.583693 28.307760 -44.899857 6.045137 21.860036 26.276619 -18.280627 -53.812462
-52.616953 90.606249 -116.405247 -22.414003 -4.265185 -53.801728 3.115994 28.647714 57.574472 19.757757 18.889006 -64.480940 -7.719714 35.516669 33.813439 -3.165179 33.377816 -6.787311 -25.664917 -65.379978 -50.799453 377.953490 -13.868963 -29.265281 -39.203384 -36.488325 -27.892539 -5.242447 40.719491 59.487205 130.461667 194.754183 220.358568 15.180785 304.872570 68.763558 -12.716123 5.712052 41.957377 36.907344 0.720906 29.735273 -1.107921 35.044246 126.364551 -54.874556 101.644683 9.021174 41.894130 -12.894709 -71.115008 -15.560009 2.028809 6.992502 19.862626 14.881302 31.716342 -44.195217 6.316213 23.554314 24.088648 -16.935225 -53.479732
-51.222381 90.329732 -115.090464 -24.560527 -2.756829 -58.307167 4.127043 27.460685 55.170716 20.107349 21.526962 -62.683194 -11.473987 38.344924 39.017548 0.312692 33.817295 -11.647994 -3.440908 -62.966940 -25.424170 369.602491 -25.521963 -23.292156 -31.985745 -28.926158 -37.203443 -9.545160 40.775335 64.448019 131.250076 200.639621 219.678104 17.193975 308.308428 73.238069 -9.720041 6.819531 47.170130 38.498993 4.191447 26.758579 -4.465552 35.269704 130.316949 -54.930225 100.604732 8.095767 40.780085 -14.928712 -71.313862 -14.737164 2.285174 3.617870 19.044697 15.231568 34.545348 -43.393080 6.448671 24.923389 23.563009 -16.186010 -48.192572
-50.059718 89.963940 -113.837546 -25.059170 -2.067990 -61.069561 7.207239 26.259473 53.430241 20.093112 27.054272 -64.900232 -13.989119 40.851546 42.736804 3.958387 31.671813 -17.001697 8.946918 -62.432375 -11.625359 364.092250 -40.149303 -17.141825 -46.371401 -38.731100 -23.506837 -13.601710 44.006588 67.562312 133.139812 203.778967 218.217878 19.478791 312.474242 76.813475 -9.684880 8.604345 50.695880 38.409238 5.750670 24.940125 -6.845834 35.435107 132.950711 -54.605662 99.601814 7.321367 40.002120 -16.597884 -71.632230 -15.422463 2.184322 0.125029 18.194290 14.943088 36.864795 -42.444404 6.009833 25.870007 21.676813 -15.569780 -46.308946
-49.023952 89.614676 -112.618674 -24.814897 -0.025066 -62.713417 11.788633 23.955225 54.154429 21.692093 28.643868 -66.708941 -16.092424 41.374007 45.421236 8.102214 30.332624 -20.670044 16.803799 -54.092458 -4.626368 357.822737 -54.546622 -11.010352 -35.150633 -27.168713 -19.974016 -16.297888 46.023655 68.652356 132.880907 205.240860 216.716520 22.130501 313.514863 81.328586 -8.246085 8.898525 54.528890 39.007221 5.705505 24.272389 -8.232111 35.549933 134.478666 -54.420850 98.357798 6.205852 39.260405 -18.099510 -72.185927 -14.750381 1.082562 -3.144494 17.247988 14.406139 38.666329 -41.260442 5.842639 26.683925 20.423133 -14.789921 -43.672021
